<?xml version="1.0" encoding="utf-8"?>
<!-- Generator: Adobe Illustrator 18.1.0, SVG Export Plug-In . SVG Version: 6.00 Build 0)  -->
<svg version="1.1" id="Layer_1" xmlns="http://www.w3.org/2000/svg" xmlns:xlink="http://www.w3.org/1999/xlink" x="0px" y="0px"
	 viewBox="0 0 387 387" enable-background="new 0 0 387 387" xml:space="preserve">
<path fill="#040305" d="M193.5,0C86.6,0,0,86.6,0,193.5C0,300.4,86.6,387,193.5,387C300.4,387,387,300.4,387,193.5
	C387,86.6,300.4,0,193.5,0z M104.3,119.1h178.3c4,0,7.6,1.5,10.3,4l-99.4,85.2l-99.4-85.2C96.8,120.7,100.4,119.1,104.3,119.1z
	 M89.4,132.2l71.9,62.5l-71.9,61.1V132.2z M282.7,267.9H104.3c-4,0-7.6-1.5-10.3-4l73.7-63.2l25.8,22.6l25.8-22.6l73.6,63.2
	C290.3,266.4,286.7,267.9,282.7,267.9z M297.7,255.8l-71.9-61.1l71.9-62.5V255.8z"/>
</svg>
