<?xml version="1.0" encoding="UTF-8" standalone="no"?>
<svg width="281px" height="82px" viewBox="0 0 281 82" version="1.1" xmlns="http://www.w3.org/2000/svg" xmlns:xlink="http://www.w3.org/1999/xlink" xmlns:sketch="http://www.bohemiancoding.com/sketch/ns">
    <!-- Generator: Sketch 3.3.3 (12081) - http://www.bohemiancoding.com/sketch -->
    <title>Shape</title>
    <desc>Created with Sketch.</desc>
    <defs></defs>
    <g id="Page-1" stroke="none" stroke-width="1" fill="none" fill-rule="evenodd" sketch:type="MSPage">
        <path d="M280.341157,81.1481533 L0.266377845,81.1481533 L0.266377845,0.727516174 L280.341157,0.727516174 L280.341157,81.1481533 L280.341157,81.1481533 Z M2.31743052,78.0942051 L278.148653,78.0942051 L278.148653,3.78146442 L2.31743052,3.78146442 L2.31743052,78.0942051 L2.31743052,78.0942051 Z M40.2144121,23.4817801 L40.2388261,47.5784597 C40.2062739,49.1572437 39.9499288,50.6668314 39.4697832,52.1072683 C38.9896375,53.5477052 38.2897747,54.8172238 37.3701738,55.9158621 C36.4505728,57.0145004 35.3316062,57.8893289 34.0132402,58.5403738 C32.6948742,59.1914187 31.1974934,59.5169363 29.5210527,59.5169363 C27.8283359,59.5169363 26.3228171,59.1914187 25.0044511,58.5403738 C23.6860852,57.8893289 22.5711875,57.0145004 21.6597246,55.9158621 C20.7482617,54.8172238 20.0443299,53.5477052 19.5479082,52.1072683 C19.0514864,50.6668314 18.7951413,49.1572437 18.7788652,47.5784597 L18.8032793,23.4817801 L20.0483964,23.4817801 L20.0728105,47.5784597 C20.0890866,48.9619302 20.31288,50.2924833 20.7441972,51.570159 C21.1755145,52.8478346 21.7939979,53.9790082 22.599666,54.9637137 C23.4053341,55.9484191 24.3900247,56.7337303 25.5537675,57.3196707 C26.7175103,57.9056111 28.0399255,58.1985769 29.5210527,58.1985769 C31.0021799,58.1985769 32.3205261,57.9015421 33.4761308,57.3074637 C34.6317356,56.7133852 35.6082883,55.924005 36.4058183,54.9392996 C37.2033484,53.9545941 37.8136938,52.8234206 38.236873,51.5457449 C38.6600522,50.2680692 38.8879145,48.9456541 38.9204668,47.5784597 L38.9448808,23.4817801 L40.2144121,23.4817801 Z M65.4761308,25.4837332 L65.4517168,32.6126394 L74.9732011,32.6126394 L74.9732011,33.9554129 L65.4517168,33.9554129 L65.4517168,52.7054129 C65.484269,53.7308086 65.6673726,54.5893612 66.0010332,55.2810965 C66.3346937,55.9728317 66.7944873,56.5343495 67.3804277,56.9656668 C67.9663681,57.396984 68.654024,57.7102947 69.443416,57.9056082 C70.2328079,58.1009217 71.0994985,58.1985769 72.0435136,58.1985769 C73.3618796,58.1985769 74.655812,58.1253355 75.9253496,57.9788504 L76.1939043,59.2239676 C75.5265832,59.3541765 74.8592722,59.4355559 74.1919511,59.4681082 C73.5246301,59.5006604 72.8491811,59.5169363 72.1655839,59.5169363 C70.9937031,59.5169363 69.9194951,59.3989362 68.9429277,59.1629324 C67.9663603,58.9269286 67.1200146,58.5403765 66.4038652,58.0032644 C65.6877158,57.4661524 65.126198,56.7662896 64.7192949,55.9036551 C64.3123918,55.0410205 64.0926674,53.9749505 64.0601152,52.7054129 L64.0601152,33.9554129 L56.2964433,33.9554129 L56.2964433,32.6126394 L64.0601152,32.6126394 L64.0601152,25.4837332 L65.4761308,25.4837332 Z M94.3267168,32.6126394 L105.337459,32.6126394 L105.337459,57.7102957 L114.712459,57.7102957 L114.712459,59.0286551 L94.3267168,59.0286551 L94.3267168,57.7102957 L104.0191,57.7102957 L104.0191,33.9309988 L94.3267168,33.9309988 L94.3267168,32.6126394 Z M102.896053,25.0931082 C102.896053,24.8652425 102.920467,24.6414491 102.969295,24.4217215 C103.018123,24.2019938 103.107641,24.0066833 103.23785,23.835784 C103.368059,23.6648847 103.543024,23.5306087 103.762752,23.4329519 C103.98248,23.3352952 104.263238,23.2864676 104.605037,23.2864676 C104.93056,23.2864676 105.203181,23.3352952 105.422908,23.4329519 C105.642636,23.5306087 105.82167,23.6648847 105.960018,23.835784 C106.098365,24.0066833 106.19602,24.2019938 106.252986,24.4217215 C106.309953,24.6414491 106.338436,24.8652425 106.338436,25.0931082 C106.338436,25.5325635 106.212297,25.9313225 105.960018,26.2893972 C105.707738,26.647472 105.256082,26.8265066 104.605037,26.8265066 C103.937716,26.8265066 103.48606,26.647472 103.250057,26.2893972 C103.014053,25.9313225 102.896053,25.5325635 102.896053,25.0931082 L102.896053,25.0931082 Z M149.983943,52.5589285 C149.983943,51.8427791 149.845598,51.1958129 149.568904,50.6180105 C149.29221,50.0402082 148.917865,49.5315869 148.445857,49.0921316 C147.97385,48.6526763 147.432677,48.2661242 146.822322,47.9324637 C146.211968,47.5988031 145.573139,47.3139752 144.905818,47.0779715 C144.238497,46.8419677 143.579324,46.6385192 142.928279,46.4676199 C142.277234,46.2967206 141.675027,46.1543067 141.121639,46.0403738 C140.454318,45.8938887 139.746317,45.7351989 138.997615,45.5642996 C138.248914,45.3934003 137.516499,45.1818139 136.80035,44.929534 C136.0842,44.6772541 135.396544,44.3802193 134.737361,44.0384207 C134.078178,43.6966221 133.504454,43.2815872 133.01617,42.7933035 C132.527886,42.3050198 132.137265,41.7312951 131.844295,41.0721121 C131.551325,40.4129291 131.41298,39.6520318 131.429256,38.7893972 C131.429256,37.9755911 131.575739,37.2472455 131.868709,36.6043387 C132.161679,35.9614318 132.548231,35.391776 133.028377,34.8953543 C133.508523,34.3989325 134.07004,33.9757597 134.712947,33.625823 C135.355854,33.2758864 136.031303,32.9910585 136.739314,32.7713308 C137.447326,32.5516032 138.167533,32.3888444 138.899959,32.2830496 C139.632384,32.1772548 140.332247,32.1243582 140.999568,32.1243582 C142.236554,32.1243582 143.449107,32.2627032 144.637264,32.5393972 C145.825421,32.8160913 146.89556,33.2555401 147.847713,33.8577566 C148.799866,34.4599732 149.585177,35.2371464 150.20367,36.1892996 C150.822163,37.1414528 151.180232,38.3011092 151.277889,39.6683035 L149.910701,39.6683035 C149.878149,38.545251 149.577045,37.5890431 149.007381,36.7996512 C148.437717,36.0102592 147.717509,35.367362 146.846736,34.8709402 C145.975964,34.3745185 145.023825,34.0123802 143.990291,33.7845144 C142.956757,33.5566487 141.95986,33.4427176 140.999568,33.4427176 C140.185762,33.4427176 139.302796,33.5281659 138.350643,33.6990652 C137.398489,33.8699645 136.507385,34.1588614 135.677303,34.5657644 C134.84722,34.9726675 134.155496,35.5138405 133.602107,36.1892996 C133.048719,36.8647587 132.763891,37.7151734 132.747615,38.7405691 C132.731339,39.4892708 132.861546,40.1403059 133.13824,40.6936941 C133.414934,41.2470823 133.785211,41.7312897 134.24908,42.1463308 C134.71295,42.561372 135.250054,42.9153723 135.860408,43.2083426 C136.470763,43.5013128 137.101453,43.7535889 137.752498,43.9651785 C138.403543,44.1767681 139.058647,44.3558028 139.71783,44.5022879 C140.377013,44.648773 140.98329,44.77898 141.536678,44.8929129 C142.57835,45.1207786 143.672902,45.4056065 144.820369,45.7474051 C145.967836,46.0892036 147.025768,46.5449283 147.994197,47.1145926 C148.962627,47.6842569 149.756076,48.4085335 150.374568,49.2874441 C150.993061,50.1663548 151.302303,51.2649766 151.302303,52.5833426 C151.302303,53.4459771 151.147682,54.2150124 150.838436,54.8904715 C150.529189,55.5659306 150.122292,56.1600002 149.617732,56.672698 C149.113173,57.1853959 148.523172,57.6248446 147.847713,57.9910574 C147.172254,58.3572702 146.464253,58.650236 145.723689,58.8699637 C144.983126,59.0896913 144.226297,59.2524501 143.453182,59.3582449 C142.680066,59.4640397 141.935444,59.5169363 141.219295,59.5169363 C140.438041,59.5169363 139.640523,59.4640397 138.826717,59.3582449 C138.012911,59.2524501 137.219462,59.0815534 136.446346,58.8455496 C135.67323,58.6095458 134.940815,58.3043731 134.24908,57.9300222 C133.557345,57.5556714 132.94293,57.1040158 132.405818,56.5750418 C131.868706,56.0460678 131.429258,55.4275844 131.087459,54.719573 C130.74566,54.0115617 130.542212,53.2099746 130.477107,52.3147879 L131.819881,52.3147879 C131.95009,53.4703926 132.328504,54.4266005 132.955135,55.1834402 C133.581765,55.9402799 134.338594,56.5424875 135.225643,56.9900808 C136.112691,57.4376742 137.085175,57.7509849 138.143123,57.9300222 C139.201071,58.1090596 140.226451,58.1985769 141.219295,58.1985769 C141.772683,58.1985769 142.374891,58.1578872 143.025936,58.0765066 C143.67698,57.995126 144.323947,57.86085 144.966853,57.6736746 C145.60976,57.4864992 146.232313,57.2504989 146.834529,56.9656668 C147.436746,56.6808346 147.969781,56.3268343 148.43365,55.9036551 C148.89752,55.4804759 149.267796,54.9962685 149.54449,54.4510183 C149.821184,53.9057682 149.967667,53.2750779 149.983943,52.5589285 L149.983943,52.5589285 Z M186.647029,59.0286551 C186.451716,58.1985728 186.321509,57.3766409 186.256404,56.5628347 C186.1913,55.7490286 186.15061,54.9270967 186.134334,54.0970144 C185.56467,54.9922012 184.885152,55.7815813 184.09576,56.4651785 C183.306368,57.1487757 182.447815,57.7143625 181.520076,58.1619558 C180.592337,58.6095492 179.607646,58.9472737 178.565975,59.1751394 C177.524303,59.4030052 176.458233,59.5169363 175.367732,59.5169363 C174.309784,59.5169363 173.276266,59.3582465 172.267146,59.0408621 C171.258027,58.7234777 170.362853,58.2636841 169.5816,57.6614676 C168.800346,57.059251 168.173724,56.3105606 167.701717,55.4153738 C167.229709,54.520187 166.993709,53.4948067 166.993709,52.3392019 C166.993709,50.760418 167.376192,49.4542787 168.14117,48.4207449 C168.906148,47.3872111 169.894907,46.5652792 171.107478,45.9549246 C172.32005,45.34457 173.675017,44.9173282 175.17242,44.6731863 C176.669823,44.4290445 178.150928,44.2988374 179.615779,44.2825613 L186.134334,44.2825613 L186.134334,40.4251394 C186.101782,39.2369825 185.857644,38.2034641 185.401912,37.3245535 C184.946181,36.4456429 184.339904,35.7213662 183.583064,35.1517019 C182.826225,34.5820376 181.947327,34.1547958 180.946346,33.8699637 C179.945364,33.5851315 178.891501,33.4427176 177.784725,33.4427176 C176.808157,33.4427176 175.81126,33.5729246 174.794002,33.8333426 C173.776744,34.0937605 172.853088,34.4884506 172.023006,35.0174246 C171.192924,35.5463986 170.501199,36.2137096 169.947811,37.0193777 C169.394422,37.8250458 169.093319,38.7812537 169.04449,39.8880301 L167.726131,39.8392019 C167.791235,38.5533882 168.137098,37.4303526 168.763728,36.4700613 C169.390359,35.50977 170.179739,34.708183 171.131893,34.0652762 C172.084046,33.4223693 173.141978,32.9381619 174.305721,32.6126394 C175.469463,32.287117 176.62912,32.1243582 177.784725,32.1243582 C179.086814,32.1243582 180.319712,32.2993239 181.483455,32.6492605 C182.647198,32.9991972 183.668509,33.5200253 184.54742,34.2117605 C185.426331,34.9034958 186.122124,35.7742553 186.634822,36.8240652 C187.14752,37.8738752 187.420141,39.0904971 187.452693,40.4739676 L187.452693,53.7063894 C187.468969,54.6015762 187.550349,55.4560598 187.696834,56.269866 C187.843319,57.0836721 187.99794,57.9300179 188.160701,58.8089285 L188.185115,59.0286551 L186.647029,59.0286551 Z M175.367732,58.222991 C176.523337,58.2392671 177.642304,58.1131291 178.724666,57.844573 C179.807028,57.576017 180.816133,57.173189 181.75201,56.6360769 C182.687887,56.0989649 183.530164,55.4316538 184.278865,54.6341238 C185.027567,53.8365938 185.64605,52.9170066 186.134334,51.8753347 L186.134334,45.6253347 L179.689021,45.6253347 C178.858939,45.6416109 178.000387,45.6904385 177.113338,45.7718191 C176.226289,45.8531997 175.359599,45.9915447 174.51324,46.1868582 C173.666882,46.3821717 172.865295,46.6425857 172.108455,46.9681082 C171.351615,47.2936306 170.692442,47.7086656 170.130916,48.2132254 C169.56939,48.7177852 169.121803,49.3159237 168.788143,50.007659 C168.454482,50.6993942 168.295792,51.5091192 168.312068,52.4368582 C168.312068,53.3645972 168.523655,54.1905981 168.946834,54.9148855 C169.370013,55.639173 169.919324,56.2454495 170.594783,56.7337332 C171.270242,57.2220169 172.027071,57.5922931 172.865291,57.844573 C173.703511,58.0968529 174.53765,58.222991 175.367732,58.222991 L175.367732,58.222991 Z M211.298396,44.7220144 L211.20074,44.7952566 L207.123592,48.1155691 L207.123592,59.0286551 L205.780818,59.0286551 L205.780818,21.5286551 L207.123592,21.5286551 L207.123592,46.6995535 L210.468318,43.7210379 L223.261287,32.6126394 L225.214412,32.6126394 L212.323787,43.8431082 L226.020076,59.0286551 L224.262264,59.0286551 L211.298396,44.7220144 Z M261.82867,60.3470144 L241.174373,60.3470144 L241.174373,59.0286551 L261.82867,59.0286551 L261.82867,60.3470144 Z" id="Shape" fill="#000000" sketch:type="MSShapeGroup"></path>
    </g>
</svg>